<svg width="390" height="100" viewBox="0 0 390 100" fill="none" xmlns="http://www.w3.org/2000/svg">
<rect width="100" height="100" transform="translate(-1)" fill="white"/>
<path d="M60 43C60 55.0194 52.1783 63 44.5 63C36.8217 63 29 55.0194 29 43C29 30.9806 36.8217 23 44.5 23C52.1783 23 60 30.9806 60 43Z" stroke="black" stroke-width="10"/>
<g filter="url(#filter0_d)">
<path d="M24 44H65V68C65 73.5228 60.5228 78 55 78H34C28.4772 78 24 73.5228 24 68V44Z" fill="black"/>
</g>
<circle cx="44.5" cy="60.5" r="7.5" fill="#FCFCFC"/>
<path d="M109.312 45.9688C109.208 45.2396 108.948 44.5521 108.531 43.9062C108.135 43.2604 107.615 42.7083 106.969 42.25C106.344 41.7708 105.625 41.3958 104.812 41.125C104.021 40.8542 103.188 40.7188 102.312 40.7188C101.521 40.7188 100.781 40.8021 100.094 40.9688C99.4062 41.1354 98.8021 41.3958 98.2812 41.75C97.7812 42.0833 97.375 42.5208 97.0625 43.0625C96.7708 43.6042 96.625 44.25 96.625 45C96.625 45.9375 96.8229 46.6875 97.2188 47.25C97.6354 47.7917 98.1562 48.2396 98.7812 48.5938C99.4271 48.9479 100.135 49.2292 100.906 49.4375C101.677 49.6458 102.427 49.875 103.156 50.125L111.75 53C112.938 53.4167 114.052 53.9896 115.094 54.7188C116.135 55.4479 117.031 56.3333 117.781 57.375C118.552 58.4167 119.156 59.6146 119.594 60.9688C120.031 62.3229 120.25 63.8438 120.25 65.5312C120.25 67.8229 119.823 69.9167 118.969 71.8125C118.135 73.7083 116.958 75.3333 115.438 76.6875C113.917 78.0417 112.094 79.0938 109.969 79.8438C107.844 80.5938 105.49 80.9688 102.906 80.9688C101.094 80.9688 99.375 80.7604 97.75 80.3438C96.1458 79.9479 94.6771 79.3646 93.3438 78.5938C92.0104 77.8229 90.8438 76.9062 89.8438 75.8438C88.8438 74.7604 88.0625 73.5417 87.5 72.1875H84.2812V62.7812H95.5938V64.7188C95.5938 65.6562 95.7396 66.5208 96.0312 67.3125C96.3438 68.1042 96.8021 68.7917 97.4062 69.375C98.0104 69.9583 98.7708 70.4167 99.6875 70.75C100.604 71.0625 101.677 71.2188 102.906 71.2188C104.781 71.2188 106.208 70.7917 107.188 69.9375C108.167 69.0625 108.656 67.8542 108.656 66.3125C108.656 65.5208 108.479 64.8646 108.125 64.3438C107.792 63.8021 107.354 63.3542 106.812 63C106.271 62.625 105.667 62.3125 105 62.0625C104.333 61.8125 103.677 61.5833 103.031 61.375L95.875 59.0625C94.5208 58.6458 93.2083 58.0625 91.9375 57.3125C90.6875 56.5625 89.5729 55.625 88.5938 54.5C87.6354 53.375 86.8646 52.0625 86.2812 50.5625C85.7188 49.0417 85.4375 47.3125 85.4375 45.375C85.4375 43.125 85.8542 41.125 86.6875 39.375C87.5208 37.6042 88.6875 36.1146 90.1875 34.9062C91.6875 33.6979 93.4688 32.7812 95.5312 32.1562C97.5938 31.5312 99.8542 31.2188 102.312 31.2188C104.25 31.2188 106.042 31.4479 107.688 31.9062C109.333 32.3438 110.802 32.9375 112.094 33.6875C113.406 34.4375 114.51 35.3021 115.406 36.2812C116.323 37.2396 117.021 38.2396 117.5 39.2812H120.625V48.7188H109.312V45.9688ZM144.344 78.25C143.615 78.7083 142.948 79.1042 142.344 79.4375C141.74 79.75 141.135 80 140.531 80.1875C139.927 80.3958 139.302 80.5417 138.656 80.625C138.01 80.7292 137.302 80.7812 136.531 80.7812C134.594 80.7812 132.854 80.5208 131.312 80C129.792 79.4583 128.5 78.7292 127.438 77.8125C126.396 76.875 125.594 75.7812 125.031 74.5312C124.469 73.2604 124.188 71.8854 124.188 70.4062C124.188 68.9062 124.469 67.5208 125.031 66.25C125.615 64.9792 126.448 63.8958 127.531 63C128.615 62.0833 129.938 61.375 131.5 60.875C133.083 60.3542 134.885 60.0938 136.906 60.0938C138.385 60.0938 139.729 60.1771 140.938 60.3438C142.167 60.4896 143.302 60.6771 144.344 60.9062V59.9062C144.344 59.0938 144.188 58.3958 143.875 57.8125C143.562 57.2083 143.125 56.7188 142.562 56.3438C142 55.9479 141.323 55.6667 140.531 55.5C139.74 55.3125 138.875 55.2188 137.938 55.2188C135.979 55.2188 134.25 55.4167 132.75 55.8125C131.271 56.1875 129.844 56.7396 128.469 57.4688L125.469 51.4062C127.594 49.9479 129.812 48.8333 132.125 48.0625C134.458 47.2917 136.927 46.9062 139.531 46.9062C141.552 46.9062 143.417 47.1354 145.125 47.5938C146.854 48.0312 148.333 48.7604 149.562 49.7812C150.792 50.7812 151.75 52.0938 152.438 53.7188C153.146 55.3438 153.5 57.3229 153.5 59.6562V71.4375H157.844V80H144.344V78.25ZM137.219 73.4062C138.698 73.4062 140.042 73.1667 141.25 72.6875C142.458 72.2083 143.49 71.625 144.344 70.9375V66.8125H136.844C136.365 66.8125 135.896 66.8854 135.438 67.0312C134.979 67.1771 134.562 67.3854 134.188 67.6562C133.833 67.9271 133.542 68.2604 133.312 68.6562C133.104 69.0521 133 69.5104 133 70.0312C133 70.9896 133.344 71.7917 134.031 72.4375C134.74 73.0833 135.802 73.4062 137.219 73.4062ZM178.5 47.625H184.406V55.8125H178.5V71.4375H184.469V80H164.375V71.4375H169.219V55.8125H164.312V47.625H169.219V42.25C169.219 40.3542 169.552 38.6875 170.219 37.25C170.885 35.8125 171.771 34.6042 172.875 33.625C174 32.6458 175.292 31.9062 176.75 31.4062C178.208 30.9062 179.74 30.6562 181.344 30.6562C182.531 30.6562 183.594 30.75 184.531 30.9375C185.469 31.1042 186.292 31.3229 187 31.5938C187.708 31.8646 188.302 32.1562 188.781 32.4688C189.281 32.7812 189.677 33.0729 189.969 33.3438L186.375 39.9375C185.896 39.5833 185.354 39.3021 184.75 39.0938C184.146 38.8854 183.406 38.7812 182.531 38.7812C181.969 38.7812 181.438 38.875 180.938 39.0625C180.458 39.25 180.031 39.5208 179.656 39.875C179.302 40.2292 179.021 40.6771 178.812 41.2188C178.604 41.7396 178.5 42.3542 178.5 43.0625V47.625ZM198.344 65.8438L198.438 66.8125C198.667 67.75 199.052 68.5729 199.594 69.2812C200.156 69.9896 200.812 70.5833 201.562 71.0625C202.312 71.5417 203.146 71.9062 204.062 72.1562C204.979 72.3854 205.906 72.5 206.844 72.5C207.781 72.5 208.667 72.4479 209.5 72.3438C210.354 72.2188 211.177 72.0625 211.969 71.875C212.76 71.6667 213.531 71.4375 214.281 71.1875C215.031 70.9167 215.792 70.6354 216.562 70.3438L220 76.75C218.812 77.4792 217.719 78.1042 216.719 78.625C215.74 79.125 214.75 79.5417 213.75 79.875C212.75 80.2083 211.688 80.4479 210.562 80.5938C209.438 80.7604 208.125 80.8438 206.625 80.8438C203.812 80.8438 201.312 80.3854 199.125 79.4688C196.938 78.5312 195.094 77.2708 193.594 75.6875C192.115 74.1042 190.979 72.25 190.188 70.125C189.417 68 189.031 65.75 189.031 63.375C189.031 61 189.438 58.7708 190.25 56.6875C191.083 54.6042 192.25 52.7917 193.75 51.25C195.25 49.6875 197.042 48.4583 199.125 47.5625C201.208 46.6667 203.521 46.2188 206.062 46.2188C208.604 46.2188 210.854 46.6458 212.812 47.5C214.792 48.3333 216.458 49.5 217.812 51C219.167 52.4792 220.208 54.2292 220.938 56.25C221.667 58.25 222.062 60.4062 222.125 62.7188C222.188 63.2396 222.219 63.7604 222.219 64.2812C222.24 64.7812 222.229 65.3021 222.188 65.8438H198.344ZM205.812 54.0312C204.646 54.0312 203.646 54.1771 202.812 54.4688C202 54.7396 201.312 55.125 200.75 55.625C200.188 56.1042 199.74 56.6562 199.406 57.2812C199.073 57.9062 198.812 58.5625 198.625 59.25H212.156C212.01 58.5417 211.802 57.875 211.531 57.25C211.26 56.625 210.885 56.0729 210.406 55.5938C209.927 55.1146 209.312 54.7396 208.562 54.4688C207.833 54.1771 206.917 54.0312 205.812 54.0312ZM275.406 45.125C274.01 42.75 272.156 40.8854 269.844 39.5312C267.552 38.1771 264.99 37.5 262.156 37.5C259.74 37.5 257.531 38.0104 255.531 39.0312C253.531 40.0521 251.812 41.4271 250.375 43.1562C248.958 44.8646 247.854 46.8542 247.062 49.125C246.271 51.375 245.875 53.75 245.875 56.25C245.875 59.2083 246.312 61.8333 247.188 64.125C248.062 66.3958 249.198 68.2917 250.594 69.8125C252.01 71.3125 253.688 72.5729 255.625 73.5938C257.562 74.5938 259.74 75.0938 262.156 75.0938C265.448 75.0938 268.312 74.3021 270.75 72.7188C273.188 71.1146 275.271 68.4896 277 64.8438L282.5 67.4375C281.708 69.6875 280.365 71.8646 278.469 73.9688C276.573 76.0521 274.229 77.7396 271.438 79.0312C268.667 80.3021 265.594 80.9375 262.219 80.9375C258.99 80.9375 256.021 80.3333 253.312 79.125C250.604 77.8958 248.188 76.1562 246.062 73.9062C243.958 71.6562 242.344 68.9896 241.219 65.9062C240.115 62.8229 239.562 59.6042 239.562 56.25C239.562 52.875 240.115 49.6875 241.219 46.6875C242.344 43.6875 243.906 41.0833 245.906 38.875C247.927 36.6458 250.323 34.8958 253.094 33.625C255.885 32.3333 258.906 31.6875 262.156 31.6875C265.052 31.6875 267.552 32.1042 269.656 32.9375C271.76 33.75 273.542 34.7292 275 35.875C276.479 37 277.75 38.2292 278.812 39.5625H282.125V45.125H275.406ZM288.969 32.625H306.594C308.76 32.625 310.823 32.9062 312.781 33.4688C314.74 34.0312 316.562 34.8229 318.25 35.8438C319.938 36.8646 321.469 38.0938 322.844 39.5312C324.219 40.9479 325.385 42.5312 326.344 44.2812C327.323 46.0312 328.073 47.9167 328.594 49.9375C329.115 51.9375 329.375 54.0208 329.375 56.1875C329.375 58.3958 329.115 60.5104 328.594 62.5312C328.073 64.5521 327.323 66.4479 326.344 68.2188C325.385 69.9896 324.219 71.6042 322.844 73.0625C321.469 74.5 319.938 75.7396 318.25 76.7812C316.562 77.8021 314.74 78.5938 312.781 79.1562C310.823 79.7188 308.76 80 306.594 80H288.969V74.625H293.469V38.0312H288.969V32.625ZM299.594 38.0312V74.625H306.969C309.156 74.625 311.208 74.1458 313.125 73.1875C315.062 72.2292 316.75 70.9271 318.188 69.2812C319.625 67.6146 320.76 65.6667 321.594 63.4375C322.427 61.1875 322.844 58.7708 322.844 56.1875C322.844 53.6458 322.427 51.2708 321.594 49.0625C320.76 46.8542 319.625 44.9375 318.188 43.3125C316.75 41.6667 315.062 40.375 313.125 39.4375C311.208 38.5 309.156 38.0312 306.969 38.0312H299.594ZM336.094 32.625H355.25C357.375 32.625 359.323 32.9062 361.094 33.4688C362.885 34.0104 364.427 34.8229 365.719 35.9062C367.031 36.9688 368.042 38.3021 368.75 39.9062C369.479 41.5104 369.844 43.3542 369.844 45.4375C369.844 47.1667 369.49 48.8021 368.781 50.3438C368.073 51.8646 367.073 53.1979 365.781 54.3438C364.49 55.4896 362.938 56.3958 361.125 57.0625C359.333 57.7292 357.333 58.0625 355.125 58.0625H346.719V74.625H351.469V80H336.094V74.625H340.594V38.0312H336.094V32.625ZM346.719 38.0312V52.9375H355.25C356.438 52.9375 357.521 52.7812 358.5 52.4688C359.5 52.1354 360.354 51.6562 361.062 51.0312C361.792 50.4062 362.354 49.625 362.75 48.6875C363.167 47.75 363.375 46.6667 363.375 45.4375C363.375 43.1042 362.667 41.2917 361.25 40C359.833 38.6875 357.573 38.0312 354.469 38.0312H346.719Z" fill="black"/>
<defs>
<filter id="filter0_d" x="20" y="44" width="49" height="42" filterUnits="userSpaceOnUse" color-interpolation-filters="sRGB">
<feFlood flood-opacity="0" result="BackgroundImageFix"/>
<feColorMatrix in="SourceAlpha" type="matrix" values="0 0 0 0 0 0 0 0 0 0 0 0 0 0 0 0 0 0 127 0"/>
<feOffset dy="4"/>
<feGaussianBlur stdDeviation="2"/>
<feColorMatrix type="matrix" values="0 0 0 0 0 0 0 0 0 0 0 0 0 0 0 0 0 0 0.25 0"/>
<feBlend mode="normal" in2="BackgroundImageFix" result="effect1_dropShadow"/>
<feBlend mode="normal" in="SourceGraphic" in2="effect1_dropShadow" result="shape"/>
</filter>
</defs>
</svg>
